<?xml version="1.0" encoding="UTF-8" standalone="no"?>
<!-- Created with Inkscape (http://www.inkscape.org/) -->

<svg
   width="50mm"
   height="45mm"
   viewBox="0 0 50 45"
   version="1.1"
   id="svg1"
   xml:space="preserve"
   inkscape:version="1.4.2 (f4327f4, 2025-05-13)"
   sodipodi:docname="ah.svg"
   xmlns:inkscape="http://www.inkscape.org/namespaces/inkscape"
   xmlns:sodipodi="http://sodipodi.sourceforge.net/DTD/sodipodi-0.dtd"
   xmlns="http://www.w3.org/2000/svg"
   xmlns:svg="http://www.w3.org/2000/svg"><sodipodi:namedview
   id="namedview1"
   pagecolor="#ffffff"
   bordercolor="#666666"
   borderopacity="1.0"
   inkscape:showpageshadow="2"
   inkscape:pageopacity="0.0"
   inkscape:pagecheckerboard="0"
   inkscape:deskcolor="#d1d1d1"
   inkscape:document-units="mm"
   inkscape:zoom="5.6568543"
   inkscape:cx="53.916892"
   inkscape:cy="40.305086"
   inkscape:window-width="3840"
   inkscape:window-height="2068"
   inkscape:window-x="-12"
   inkscape:window-y="-12"
   inkscape:window-maximized="1"
   inkscape:current-layer="svg1"
   showgrid="false"
   showguides="true"><sodipodi:guide
     position="28.203617,32.371515"
     orientation="0,1"
     id="guide3"
     inkscape:locked="false"
     inkscape:label=""
     inkscape:color="rgb(0,134,229)" /><sodipodi:guide
     position="17.692369,48.33168"
     orientation="1,0"
     id="guide4"
     inkscape:locked="false" /><sodipodi:guide
     position="32.28283,47.814696"
     orientation="1,0"
     id="guide5"
     inkscape:locked="false" /><sodipodi:guide
     position="1.7807254,8.5812925"
     orientation="0,-1"
     id="guide6"
     inkscape:locked="false" /><sodipodi:guide
     position="31.682167,7.3875815"
     orientation="0,-1"
     id="guide7"
     inkscape:locked="false" /></sodipodi:namedview><defs
   id="defs1" />
     
     

              
       
       
       

       
       <path
   style="fill:none;fill-rule:evenodd;stroke:#000000;stroke-width:0.264583px;stroke-linecap:butt;stroke-linejoin:miter;stroke-opacity:1"
   d="m 11.316223,13.671376 c 3.653883,-1.904442 9.826261,-0.59075 9.580457,3.725685 -0.280507,4.92584 -5.157808,5.424122 -7.003523,6.145608 1.606277,0.474716 11.404561,2.111938 8.538653,8.743277 -1.938734,4.48598 -7.763349,7.313061 -12.853185,0.801028"
   id="path1"
   sodipodi:nodetypes="cscsc" /><path
   style="fill:none;fill-rule:evenodd;stroke:#000000;stroke-width:0.264583px;stroke-linecap:butt;stroke-linejoin:miter;stroke-opacity:1"
   d="m 16.12541,23.558534 15.739291,-0.02872"
   id="path2"
   sodipodi:nodetypes="cc" /><path
   style="fill:none;fill-rule:evenodd;stroke:#000000;stroke-width:0.264583px;stroke-linecap:butt;stroke-linejoin:miter;stroke-opacity:1"
   d="M 32.455156,12.982063 V 36.533592"
   id="path3"
   sodipodi:nodetypes="cc" /><path
   style="fill:none;fill-rule:evenodd;stroke:#000000;stroke-width:0.264583px;stroke-linecap:butt;stroke-linejoin:miter;stroke-opacity:1"
   d="m 40.902041,20.1082 c -0.326557,-0.05424 -0.610157,0.14684 -0.718332,0.419084 -0.251724,0.579667 0.313556,0.883914 0.843708,0.865975 0.460403,-0.01558 0.894315,-0.274145 0.743625,-0.806325 -0.04335,-0.141195 -0.131315,-0.298198 -0.285284,-0.349707 -0.06356,-0.025 -0.130357,-0.03673 -0.194696,-0.03548"
   id="path5"
   sodipodi:nodetypes="ccsccc" /><path
   style="fill:none;fill-rule:evenodd;stroke:#000000;stroke-width:0.264583px;stroke-linecap:butt;stroke-linejoin:miter;stroke-opacity:1"
   d="m 40.802822,27.119658 c -0.326557,-0.05424 -0.610157,0.14684 -0.718332,0.419084 -0.251724,0.579667 0.313556,0.883914 0.843708,0.865975 0.460403,-0.01558 0.894315,-0.274145 0.743625,-0.806325 -0.04335,-0.141195 -0.131315,-0.298198 -0.285284,-0.349707 -0.06356,-0.025 -0.130357,-0.03673 -0.194696,-0.03548"
   id="path6"
   sodipodi:nodetypes="ccsccc" /><path
   style="fill:none;fill-rule:evenodd;stroke:#000000;stroke-width:0.264583px;stroke-linecap:butt;stroke-linejoin:miter;stroke-opacity:1"
   d="m 24.411665,12.551242 14.419638,0"
   id="path4"
   sodipodi:nodetypes="cc" /></svg>
