<?xml version="1.0" encoding="UTF-8" standalone="no"?>
<!-- Created with Inkscape (http://www.inkscape.org/) -->

<svg
   width="50mm"
   height="45mm"
   viewBox="0 0 50 45"
   version="1.1"
   id="svg1"
   xml:space="preserve"
   inkscape:version="1.4.2 (f4327f4, 2025-05-13)"
   sodipodi:docname="i.svg"
   xmlns:inkscape="http://www.inkscape.org/namespaces/inkscape"
   xmlns:sodipodi="http://sodipodi.sourceforge.net/DTD/sodipodi-0.dtd"
   xmlns="http://www.w3.org/2000/svg"
   xmlns:svg="http://www.w3.org/2000/svg"><sodipodi:namedview
   id="namedview1"
   pagecolor="#ffffff"
   bordercolor="#666666"
   borderopacity="1.0"
   inkscape:showpageshadow="2"
   inkscape:pageopacity="0.0"
   inkscape:pagecheckerboard="0"
   inkscape:deskcolor="#d1d1d1"
   inkscape:document-units="mm"
   inkscape:zoom="9.2120695"
   inkscape:cx="82.71757"
   inkscape:cy="105.6223"
   inkscape:window-width="3840"
   inkscape:window-height="2068"
   inkscape:window-x="-12"
   inkscape:window-y="-12"
   inkscape:window-maximized="1"
   inkscape:current-layer="svg1"
   showgrid="false"
   showguides="true"><sodipodi:guide
     position="27.974623,32.362594"
     orientation="0,1"
     id="guide3"
     inkscape:locked="false"
     inkscape:label=""
     inkscape:color="rgb(0,134,229)" /><sodipodi:guide
     position="17.692369,48.33168"
     orientation="1,0"
     id="guide4"
     inkscape:locked="false" /><sodipodi:guide
     position="32.28283,47.814696"
     orientation="1,0"
     id="guide5"
     inkscape:locked="false" /><sodipodi:guide
     position="1.7807254,8.5812925"
     orientation="0,-1"
     id="guide6"
     inkscape:locked="false" /><sodipodi:guide
     position="31.682167,7.3875815"
     orientation="0,-1"
     id="guide7"
     inkscape:locked="false" /></sodipodi:namedview><defs
   id="defs1" />
     
     

              
       
       
       

       
       <path
   style="fill:none;fill-rule:evenodd;stroke:#000000;stroke-width:0.264583px;stroke-linecap:butt;stroke-linejoin:miter;stroke-opacity:1"
   d="m 32.31,12.775433 v 6.841904 c -3.341948,0.525695 -7.543993,-0.638507 -10.198042,0.274823 -3.055301,1.051412 -3.046957,3.943191 -1.627982,5.823706 1.85509,2.458482 4.861824,1.063099 8.637088,0.523038 3.134603,-0.448413 4.471859,1.281743 4.798301,3.088529 0.21517,1.190919 -0.0057,2.54775 -0.66221,3.570297 -1.309985,2.040397 -2.578249,2.841844 -4.793566,3.345869 -2.480435,0.564344 -5.295739,0.891709 -7.73276,-0.224422 -1.023512,-0.468758 -2.002376,-1.251626 -2.136064,-2.460695 -0.116157,-1.050527 0.555084,-2.249081 1.727973,-2.17711 1.852238,0.113657 3.368612,1.440331 4.130489,3.062503 1.0251,2.104586 1.931891,4.596254 3.992256,5.930663"
   id="path1"
   sodipodi:nodetypes="ccssssssssssc" /><path
   style="fill:none;fill-rule:evenodd;stroke:#000000;stroke-width:0.264583px;stroke-linecap:butt;stroke-linejoin:miter;stroke-opacity:1"
   d="m 16.227904,12.672867 23.780985,0"
   id="path2"
   sodipodi:nodetypes="cc" /></svg>
