<?xml version="1.0" encoding="UTF-8" standalone="no"?>
<!-- Created with Inkscape (http://www.inkscape.org/) -->

<svg
   width="35mm"
   height="30mm"
   viewBox="0 0 35 30"
   version="1.1"
   id="svg1"
   xml:space="preserve"
   inkscape:version="1.4.2 (f4327f4, 2025-05-13)"
   sodipodi:docname="tha2.svg"
   xmlns:inkscape="http://www.inkscape.org/namespaces/inkscape"
   xmlns:sodipodi="http://sodipodi.sourceforge.net/DTD/sodipodi-0.dtd"
   xmlns="http://www.w3.org/2000/svg"
   xmlns:svg="http://www.w3.org/2000/svg"><sodipodi:namedview
   id="namedview1"
   pagecolor="#ffffff"
   bordercolor="#666666"
   borderopacity="1.0"
   inkscape:showpageshadow="2"
   inkscape:pageopacity="0.0"
   inkscape:pagecheckerboard="0"
   inkscape:deskcolor="#d1d1d1"
   inkscape:document-units="mm"
   inkscape:zoom="6.5139168"
   inkscape:cx="22.643826"
   inkscape:cy="9.5180829"
   inkscape:window-width="3840"
   inkscape:window-height="2068"
   inkscape:window-x="-12"
   inkscape:window-y="-12"
   inkscape:window-maximized="1"
   inkscape:current-layer="svg1" /><defs
   id="defs1" />
     
     <path
   style="fill:none;fill-rule:evenodd;stroke:#000000;stroke-width:0.264583px;stroke-linecap:butt;stroke-linejoin:miter;stroke-opacity:1"
   d="M 18.847387,3.8350228 V 10.882393"
   id="path1"
   sodipodi:nodetypes="cc" />

              <path
   style="fill:none;fill-rule:evenodd;stroke:#000000;stroke-width:0.264583px;stroke-linecap:butt;stroke-linejoin:miter;stroke-opacity:1"
   d="m 18.6894 11.5286 c 0.419707 0.0885477 0.82097 0.191968 1.20406 0.30904 c 0.410474 0.125439 0.80009 0.266552 1.16919 0.421837 c 0.395534 0.166406 0.767507 0.349087 1.11634 0.546196 c 0.373051 0.210793 0.719638 0.438087 1.04028 0.679623 c 0.341231 0.257049 0.653071 0.530228 0.936139 0.816814 c 0.298863 0.302577 0.565654 0.620098 0.801102 0.94936 c 0.245982 0.343993 0.457755 0.700801 0.636148 1.06677 c 0.184187 0.377854 0.332792 0.765474 0.44673 1.15884 c 0.116301 0.401523 0.196481 0.80903 0.241513 1.21824 c 0.0455185 0.413633 0.0551256 0.829009 0.0298261 1.24171 c -0.0253666 0.413795 -0.0858252 0.824902 -0.180363 1.22887 c -0.0941717 0.402401 -0.222159 0.797716 -0.382962 1.18154 c -0.1592 0.380002 -0.350563 0.748745 -0.573119 1.10196 c -0.218872 0.347365 -0.467912 0.67971 -0.746197 0.992971 c -0.271574 0.305708 -0.570999 0.593241 -0.897417 0.858825 c -0.315763 0.256916 -0.656786 0.493291 -1.02229 0.705709 c -0.350383 0.20363 -0.723264 0.385244 -1.11796 0.54183 c -0.375217 0.148859 -0.770146 0.275099 -1.1842 0.376135 c -0.390994 0.0954081 -0.799042 0.168341 -1.22365 0.216619 c -0.399165 0.0453858 -0.812964 0.0689835 -1.24098 0.0689835 c -0.488765 0 -0.958299 -0.0186164 -1.40892 -0.0545722 c -0.488329 -0.0389647 -0.954446 -0.0982922 -1.39875 -0.176358 c -0.4833 -0.0849163 -0.940794 -0.192003 -1.373 -0.31917 c -0.470935 -0.138561 -0.911849 -0.300962 -1.32341 -0.484496 c -0.447516 -0.199568 -0.860328 -0.424124 -1.2393 -0.670188 c -0.408953 -0.265533 -0.778496 -0.556113 -1.10971 -0.86737 c -0.352459 -0.33122 -0.661515 -0.685853 -0.928474 -1.05863 c -0.278836 -0.389364 -0.511745 -0.798524 -0.700214 -1.22148 c -0.193117 -0.433386 -0.339575 -0.881256 -0.440973 -1.33715 c -0.102305 -0.459976 -0.15874 -0.928121 -0.170946 -1.3978 c -0.0121927 -0.469069 0.0197268 -0.939672 0.0941225 -1.4052 c 0.0738784 -0.462293 0.189644 -0.919584 0.345696 -1.3654 c 0.154425 -0.441173 0.3483 -0.871112 0.580073 -1.28355 c 0.228538 -0.406679 0.493923 -0.79634 0.794667 -1.16297 c 0.294918 -0.35953 0.623838 -0.696914 0.985356 -1.00649 c 0.351578 -0.30106 0.733986 -0.575814 1.14593 -0.819051 c 0.396304 -0.234 0.819946 -0.438831 1.26978 -0.60985 c 0.427705 -0.162607 0.879087 -0.294648 1.35316 -0.392132 c 0.446031 -0.0917184 0.912146 -0.152847 1.39752 -0.180062 c 0.453223 -0.0254128 0.923239 -0.0212569 1.40938 0.015173"
   id="path3"
   sodipodi:nodetypes="csc" />
       
       <path
   style="fill:none;fill-rule:evenodd;stroke:#000000;stroke-width:0.264583px;stroke-linecap:butt;stroke-linejoin:miter;stroke-opacity:1"
   d="M 5.3339794,3.0845428 H 29.833316"
   id="path2"
   sodipodi:nodetypes="cc" />
       

       
       </svg>
